<svg xmlns="http://www.w3.org/2000/svg" xmlns:xlink="http://www.w3.org/1999/xlink" id="doohickey" x="0px" y="0px" viewBox="0 0 100 43.5" xml:space="preserve">
<path id="XMLID_11036_" fill="#A58241" d="M60.6,34.8c-0.2,0.4-0.5,0.7-1,0.7c-2.3,0.5-5.1-2.4-6.5-3.8  C54.5,31.7,61.8,31.8,60.6,34.8"></path>
<path id="XMLID_11035_" fill="#A58241" d="M56.4,37c1.5,1.7,0,4-1.9,2.3c-1.6-1.5-2.5-3.8-3.1-5.9C53.9,34.7,55.5,35.9,56.4,37"></path>
<path id="XMLID_11034_" fill="#A58241" d="M51.9,41.7c-0.3,0.5-0.8,0.8-1.3,0.9c-0.1,0.1-0.3,0.1-0.5,0.1l0,0c0,0,0,0,0,0h-0.1  c-0.1,0-0.3,0-0.4-0.1C46,41.9,48.3,35.9,49,34c0,0,0,0,0-0.1c0-0.1,0-0.2,0.1-0.3c0.1-0.3,0.4-0.6,0.8-0.6c0,0,0,0,0,0  c0.3,0,0.6,0.2,0.8,0.5c0,0,0,0.1,0.1,0.1c0.1,0.1,0.1,0.2,0.1,0.3c0.9,2.3,1.3,4.2,1.3,5.8C52.3,40.5,52.2,41.1,51.9,41.7"></path>
<path id="XMLID_11033_" fill="#A58241" d="M45.9,38.8c-0.5,0.5-0.9,0.9-1.4,1.1c-0.5,0.2-0.9,0.1-1.2-0.2c-2.5-2,3.9-5.6,5.2-6.2  C47.8,35.8,46.9,37.6,45.9,38.8"></path>
<path id="XMLID_11032_" fill="#A58241" d="M41,32.5c1.3-0.6,3.3-0.8,6-0.9c-1.4,1.4-4.2,4.3-6.5,3.8C38.3,35.3,39.9,33,41,32.5"></path>
<path id="XMLID_11031_" fill="#A58241" d="M8.9,5c-3,1.1-5.2,3.6-3.5,6.8c-2.8,0.8-5-1.9-5-4.5c0-3.1,2.7-4.7,5.3-5.5  c6.6-2.2,13.8-0.4,19.4,3.5C20.1,3.9,14,3.1,8.9,5"></path>
<path id="XMLID_11030_" fill="#A58241" d="M38.9,28.2c0.6-3.2,6.8,0.8,7.9,1.6C45.6,30,38.1,31.2,38.9,28.2"></path>
<path id="XMLID_11029_" fill="#A58241" d="M33.3,7.6c7.1,2.3,10.6,10.5,12.3,17.2c-2.4-4.4-5.8-8.5-10.2-11  c-3.9-2.2-10-3.3-12.3,1.7c-1.6-1.4-1.9-3.6-0.6-5.4C24.8,6.9,29.7,6.3,33.3,7.6"></path>
<path id="XMLID_11028_" fill="#A58241" d="M50.2,32.1h-0.2c-0.4,0-0.6-0.2-0.9-0.4c-0.5-0.6-0.5-1.5,0-2.1c0.3-0.2,0.5-0.4,0.9-0.4  h0.3c0.3,0.1,0.6,0.2,0.9,0.4c0.6,0.6,0.6,1.5,0,2.1C50.8,31.9,50.5,32.1,50.2,32.1L50.2,32.1z"></path>
<path id="XMLID_11027_" fill="#A58241" d="M49.9,15.2c0,0,0.1,0,0.1,0c0,0,0.1,0,0.2,0c2-0.5,4-1.5,6.1-3c-2.9,4.9-4.9,9.3-6.1,13.4  c0,0,0,0,0,0.1c0,0,0,0.1-0.1,0.1c0,0.1-0.1,0.2-0.1,0.3c0-0.1-0.1-0.2-0.1-0.3c0-0.1,0-0.1,0-0.2c-1.1-4.1-3.2-8.6-6.1-13.4  C45.8,13.7,47.9,14.7,49.9,15.2"></path>
<path id="XMLID_11026_" fill="#A58241" d="M61.2,28.2c0.1,0.5-0.1,0.8-0.4,1.1c-1.6,1.7-5.6,0.8-7.5,0.4  C54.5,29,60.5,25.1,61.2,28.2"></path>
<path id="XMLID_11025_" fill="#A58241" d="M77.6,10.2c1.3,1.8,1,3.9-0.6,5.4c-2.3-5-8.4-3.9-12.3-1.7c-4.4,2.5-7.8,6.6-10.2,11  c1.3-5.1,3.3-10.3,7.1-14C65.6,7,73.7,4.8,77.6,10.2"></path>
<path id="XMLID_11024_" fill="#A58241" d="M97.5,11.4c-0.9,0.6-1.9,0.7-3,0.4C97,7.5,92.2,5,88.6,4.3c-4.5-0.9-9.4-0.2-13.8,1  C79.8,1.8,86,0,92.1,1.2c2.3,0.4,5.4,1.4,6.7,3.5C100.1,6.8,99.6,9.9,97.5,11.4"></path>
<path id="XMLID_11023_" fill="#A58241" d="M8.6,13.4c0,2.2,1.8,4.1,4.1,4.1c2.2,0,4-1.8,4-4.1c0-2.2-1.8-4-4-4  C10.4,9.3,8.6,11.2,8.6,13.4"></path>
<path id="XMLID_11017_" fill="#A58241" d="M24.8,19.5c0,2.2,1.8,4.1,4.1,4.1c2.2,0,4-1.8,4-4.1c0-2.2-1.8-4.1-4-4.1  C26.6,15.4,24.8,17.2,24.8,19.5"></path>
<path id="XMLID_11016_" fill="#A58241" d="M90.1,13.4c0,2.2-1.8,4.1-4.1,4.1c-2.2,0-4.1-1.8-4.1-4.1c0-2.2,1.8-4,4.1-4  C88.3,9.3,90.1,11.2,90.1,13.4"></path>
<path id="XMLID_11015_" fill="#A58241" d="M73.9,19.5c0,2.2-1.8,4.1-4,4.1c-2.2,0-4.1-1.8-4.1-4.1c0-2.2,1.8-4.1,4.1-4.1  C72.1,15.4,73.9,17.2,73.9,19.5"></path>
</svg>