<svg xmlns="http://www.w3.org/2000/svg" xmlns:xlink="http://www.w3.org/1999/xlink" id="Layer_1" x="0px" y="0px" viewBox="0 0 500 259.8" xml:space="preserve">
<g id="XMLID_99_">
	<path id="XMLID_1012_" fill="#39B54A" d="M163.2,124.9c-0.6,0.3-1.6,0.9-3.1,1.7c-5.9,8.7-12.7,19-19.5,29.4   c14.2-7.7,26.2-14.4,30.4-17.4c11-7.8,8.2-12.5,7.8-19.2C178.4,112.8,171.4,120.6,163.2,124.9z"></path>
	<path id="XMLID_1011_" fill="#39B54A" d="M116.3,151.5c-7.1,16-23.2,27.2-41.8,27.2c-2,0-4-0.2-5.9-0.4   c-16.7,9.3-30.5,16.6-35.5,18.7c-16.2,6.7-30,3.9-30,3.9c27.8,25.4,55.6,1.2,74.3-10.2c6.3-3.8,17.6-10,30.3-16.9   c5.5-8,11.9-17.7,18.7-28.1C123.1,147.6,119.7,149.5,116.3,151.5z"></path>
	<path id="XMLID_1010_" fill="#FFFFFF" d="M74.5,89.5c24,0,43.4,19.4,43.4,43.4c0,24-19.4,43.4-43.4,43.4S31,156.9,31,132.9   C31,109,50.5,89.5,74.5,89.5"></path>
	<path id="XMLID_1007_" fill="#EA9523" d="M74.5,89.5c-24,0-43.4,19.4-43.4,43.4s19.4,43.4,43.4,43.4s43.4-19.4,43.4-43.4   S98.4,89.5,74.5,89.5z M74.5,173c-22.1,0-40.1-17.9-40.1-40.1c0-22.1,17.9-40.1,40.1-40.1c22.1,0,40.1,17.9,40.1,40.1   C114.5,155.1,96.6,173,74.5,173z"></path>
	<path id="XMLID_1006_" fill="#FFFFFF" d="M74.5,173c22.1,0,40.1-17.9,40.1-40.1S96.6,92.9,74.5,92.9c-22.1,0-40.1,17.9-40.1,40.1   S52.3,173,74.5,173"></path>
	<path id="XMLID_1005_" fill="#FBAD45" d="M72.1,128.3c0.5,0.5,0.9,0.3,0.9-0.4V98.6c0-0.7-0.6-1.2-1.3-1.1l-20.3,8.3   c-0.6,0.4-0.7,1.2-0.2,1.7L72.1,128.3z"></path>
	<path id="XMLID_1004_" fill="#FBAD45" d="M49.6,109c-0.5-0.5-1.3-0.4-1.7,0.2l-8.8,20.6c-0.2,0.7,0.3,1.3,1,1.3h30.2   c0.7,0,0.9-0.4,0.4-0.9L49.6,109z"></path>
	<path id="XMLID_1003_" fill="#FBAD45" d="M70.7,134.7c0.5-0.5,0.3-0.9-0.4-0.9H40.1c-0.7,0-1.2,0.6-1.1,1.3l8.4,21.1   c0.4,0.6,1.2,0.7,1.7,0.2L70.7,134.7z"></path>
	<path id="XMLID_1002_" fill="#FBAD45" d="M50.7,157.9c-0.5,0.5-0.4,1.3,0.2,1.7l20.9,8.7c0.7,0.2,1.3-0.3,1.3-1v-30.4   c0-0.7-0.4-0.9-0.9-0.4L50.7,157.9z"></path>
	<path id="XMLID_1000_" fill="#FBAD45" d="M108.8,131.1c0.7,0,1.2-0.6,1-1.3l-8.7-20.4c-0.4-0.6-1.2-0.7-1.7-0.2l-20.9,20.9   c-0.5,0.5-0.3,0.9,0.4,0.9H108.8z"></path>
	<path id="XMLID_999_" fill="#FBAD45" d="M97.8,107.6c0.5-0.5,0.4-1.3-0.2-1.7L77,97.5c-0.7-0.2-1.3,0.3-1.3,1.1v29.8   c0,0.7,0.4,0.9,0.9,0.4L97.8,107.6z"></path>
	<path id="XMLID_998_" fill="#FBAD45" d="M99.9,156.2c0.5,0.5,1.3,0.4,1.7-0.2l8.3-20.9c0.1-0.7-0.3-1.3-1.1-1.3h-30   c-0.7,0-0.9,0.4-0.4,0.9L99.9,156.2z"></path>
	<path id="XMLID_997_" fill="#FBAD45" d="M76.7,136.1c-0.5-0.5-0.9-0.3-0.9,0.4v30.8c0,0.7,0.6,1.2,1.3,1l21.1-8.9   c0.6-0.4,0.7-1.2,0.2-1.7L76.7,136.1z"></path>
	<path id="XMLID_992_" fill="#ED1C24" d="M117.2,58.4c0.5-0.7,1.2-1.5,1.9-2.2c-1.8-5.5-5.5-9-5.5-9s-1.2-0.5-2.7,0.6   c-1.3,0.9-0.9,2.5-0.9,2.5c3.5,2,5.5,4.9,6.7,7.9C116.8,58.2,117,58.3,117.2,58.4z"></path>
	<path id="XMLID_991_" fill="#ED1C24" d="M114.2,126.2c10.7,5.6,22.1-2.5,22.9-3c0.3,0,1.9,0.1,4.2-0.2c8.5-13.1,17-26.2,24.3-37.7   c0.4-8.6-1.2-17.6-7.3-25.1c-12.9-16-33.5-9.4-40.2-0.2c-10.7-3.9-31.5,1.9-33.4,22.4C82.4,105.6,106.9,122.4,114.2,126.2z"></path>
	<path id="XMLID_990_" fill="#009444" d="M128.4,36.9c0,0,3.4,4.3-0.8,7.9s-7.1,4.2-7.8,11c0,0-1.6-4.3-1.4-8.1   S125.4,40.9,128.4,36.9z"></path>
	<path id="XMLID_989_" fill="#009444" d="M78.1,47.2c0,0,9.5,2.2,14.9,1.6c5.4-0.6,14.2,0.3,17.6,3.6c3.5,3.3,4.6,5.7,4.6,5.7   s-1.5-2.7-9-3.6S91,54.9,88.1,53.7C85.1,52.6,81.4,50.9,78.1,47.2z"></path>
	<g id="XMLID_977_">
		<path id="XMLID_987_" fill="#FFFFFF" d="M224.2,97.3h-4V23.8h4V97.3z"></path>
		<path id="XMLID_983_" fill="#FFFFFF" d="M245.1,42.4c0,2-1.6,3.7-3.7,3.7c-2,0-3.7-1.6-3.7-3.7c0-2,1.6-3.7,3.7-3.7    C243.5,38.7,245.1,40.4,245.1,42.4z M243.4,97.3h-4V56.1h4V97.3z"></path>
		<path id="XMLID_981_" fill="#FFFFFF" d="M271.3,90.1l14.6-33.9h4.1l-18.8,43.4l-18.9-43.4h4.1L271.3,90.1z"></path>
		<path id="XMLID_978_" fill="#FFFFFF" d="M297.3,77c-0.3,10.4,6.9,17.4,16.5,17.4c6.4,0,11.6-3.8,14.5-9.4l3.4,2    c-3.7,7.1-10.3,11.1-18.4,11.1c-12.2,0-20-9.9-20-21.6c0-11.5,7.9-21.4,20-21.4c12.5,0,19.9,10,19.8,21.8H297.3z M329,73.3    c-1-7.6-7.2-14.3-15.7-14.3c-8.4,0-15.3,6.6-16,14.3H329z"></path>
	</g>
	<g id="XMLID_957_">
		<path id="XMLID_974_" fill="#FFFFFF" d="M138.1,216.4c0,5.5,2.1,11.8,8.7,11.8c4.1,0,6.7-2.5,8.4-6l11.5,1.9    c-3,8.7-10.7,13.7-19.9,13.7c-13.6,0-21.9-9.6-21.9-22.9c0-13.3,7.1-23.7,21.2-23.7c14.4,0,20.8,10.6,20.8,23.8v1.5H138.1z     M155.2,208.6c-0.6-4.5-3.5-8.8-8.3-8.8c-5,0-7.8,4.3-8.4,8.8H155.2z"></path>
		<path id="XMLID_971_" fill="#FFFFFF" d="M214.2,236.3h-12.3v-4h-0.2c-2.7,3.5-7.3,5.4-11.9,5.4c-12.9,0-20.2-11.7-20.2-23.6    c0-11.6,7.4-23.1,20-23.1c4.6,0,9.2,2,12.2,5.5v-4.1h12.3V236.3z M203.1,214.3c0-5.9-4-12.2-10.4-12.2c-6.4,0-10.4,6.3-10.4,12.2    s3.9,12.3,10.4,12.3C199.1,226.6,203.1,220.2,203.1,214.3z"></path>
		<path id="XMLID_969_" fill="#FFFFFF" d="M237.2,236.3h-12.5V203h-4.3v-10.5h4.3v-14.8h12.5v14.8h7.7V203h-7.7V236.3z"></path>
		<path id="XMLID_967_" fill="#FFFFFF" d="M286.4,236.3h-12.5V203h-4.2v-10.5h4.2v-12.9c0-10.7,4.5-20.1,16.5-20.1    c2.1,0,4.1,0.4,6,1.4v11.2c-1.6-0.8-3.2-1.5-5.1-1.5c-5.5,0-4.9,7.2-4.9,10.8v11.1h10V203h-10V236.3z"></path>
		<path id="XMLID_965_" fill="#FFFFFF" d="M313,197h0.2c2.5-3.8,6.2-6,10.9-6c1.8,0,3.6,0.4,5.2,1.1l-1.5,11.6    c-1.5-1.1-3.3-1.6-5.2-1.6c-8.7,0-9.6,7.7-9.6,14.5v19.7h-12.5v-43.8H313V197z"></path>
		<path id="XMLID_962_" fill="#FFFFFF" d="M343.4,216.4c0,5.5,2.1,11.8,8.7,11.8c4.1,0,6.7-2.5,8.4-6l11.5,1.9    c-3,8.7-10.7,13.7-19.9,13.7c-13.6,0-21.9-9.6-21.9-22.9c0-13.3,7-23.7,21.2-23.7c14.4,0,20.8,10.6,20.8,23.8v1.5H343.4z     M360.4,208.6c-0.6-4.5-3.5-8.8-8.3-8.8c-5,0-7.8,4.3-8.4,8.8H360.4z"></path>
		<path id="XMLID_960_" fill="#FFFFFF" d="M400.5,202.8c-1.8-1.7-4.1-3-6.6-3c-2.1,0-4.1,1.6-4.1,3.7c0,3.2,4.6,4.1,9,6.1    c4.6,2,9,5,9,12.6c0,9.7-7.9,15.5-17,15.5c-5.9,0-11.6-2.7-15.4-7.3l5.7-7.4c2.4,2.7,5.6,5.1,9.3,5.1c2.8,0,5-1.9,5-4.7    c0-3.8-4.4-4.7-8.7-6.6c-4.4-1.9-8.7-4.5-8.7-11.5c0-8.2,5.7-14.2,13.9-14.2c4.6,0,10.5,1.4,14.1,4.6L400.5,202.8z"></path>
		<path id="XMLID_958_" fill="#FFFFFF" d="M427.1,160.6v35.5h0.2c2.6-3.6,7-5.1,11.4-5.1c11.8,0,15.2,8.3,15.2,18.5v26.8h-12.5    v-23.2c0-5.3,0.3-12.1-6.8-12.1c-7.4,0-7.5,8.3-7.5,13.6v21.7h-12.5v-75.7H427.1z"></path>
	</g>
	<path id="XMLID_955_" fill="#FFFFFF" d="M192.5,68.3v46.7h0.2c2.9-5.5,8.3-8.8,14.7-8.8c12.8,0,16.3,8,16.3,20.7v30H219v-30   c0-8.9-1.1-16.2-11.9-16.2c-12.5,0-14.5,11.6-14.5,21.7V157h-4.8V68.3H192.5z"></path>
	<path id="XMLID_954_" fill="#39B54A" d="M185,68.3v-2.7h2.7h4.8h2.7v2.7v3.2c2.5-7.7,2-15.3-4.7-21c0,0-85.8,135.1-96.9,146.4   c-11.1,11.4-20.2,22.3-29.2,24.3h22.4c0,0,11.6-4.3,27.7-29.3s51.3-79.5,59.1-88.5c2.5-2.9,6.9-7.7,11.2-13.5V68.3z"></path>
	<path id="XMLID_788_" fill="#FFFFFF" d="M240.4,132.6c-0.3,12.6,8.4,21,19.9,21c7.7,0,14-4.6,17.5-11.3l4.1,2.4   c-4.5,8.6-12.5,13.4-22.2,13.4c-14.7,0-24.1-11.9-24.1-26c0-13.9,9.6-25.8,24.1-25.8c15,0,24,12,23.9,26.3H240.4z M278.6,128.1   c-1.2-9.1-8.7-17.3-18.9-17.3c-10.1,0-18.5,8-19.3,17.3H278.6z"></path>
	<path id="XMLID_785_" fill="#FFFFFF" d="M338.8,157H334v-8.9h-0.2c-3.7,6.3-11.6,10-18.9,10c-15,0-24.5-11.7-24.5-26.2   c0-14.5,9.3-25.6,24.3-25.6c7.6,0,14.9,3.4,19.1,9.7h0.2v-8.6h4.8V157z M295.2,131.8c0,11.4,7.5,21.7,19.6,21.7   c12.7,0,19.6-10.3,19.6-22.2c0-11.5-7.8-20.5-19.9-20.5C303,110.8,295.2,121.1,295.2,131.8z"></path>
	<path id="XMLID_767_" fill="#FFFFFF" d="M386.5,157h-4.8v-45.1h-5.5v-4.5h5.5V89.6h4.8v17.7h8.7v4.5h-8.7V157z"></path>
	<path id="XMLID_750_" fill="#FFFFFF" d="M408.4,68.3v46.7h0.2c2.9-5.5,8.3-8.8,14.7-8.8c12.8,0,16.3,8,16.3,20.7v30h-4.8v-30   c0-8.9-1.1-16.2-11.9-16.2c-12.5,0-14.5,11.6-14.5,21.7V157h-4.8V68.3H408.4z"></path>
	<path id="XMLID_729_" fill="#FFFFFF" d="M447.2,107.3h5.1l21.2,44.9l19-44.9h4.9L464.1,186h-4.9l11.9-28.2L447.2,107.3z"></path>
	<g id="XMLID_400_">
		<path id="XMLID_697_" fill="#FFFFFF" d="M391.9,44.7c0,0-9.1,34.6-17,47.3s-29.4,46.4-27.6,61.7c0,0-5.3-28.8,2.9-44.6    S390.2,51.7,391.9,44.7z"></path>
		<path id="XMLID_413_" fill="#FFFFFF" d="M366.9,131c0,0-0.7,10.6-6.4,14.2c-5.7,3.6-11.6,4.9-12.5,12.5c0,0-1.2-6.5,1.9-12    C353,140.2,364.2,138.6,366.9,131z"></path>
	</g>
</g>
</svg>